<?xml version="1.0" standalone="no"?>
<!DOCTYPE svg PUBLIC "-//W3C//DTD SVG 20010904//EN"
 "http://www.w3.org/TR/2001/REC-SVG-20010904/DTD/svg10.dtd">
<svg version="1.0" xmlns="http://www.w3.org/2000/svg"
 width="40.000000pt" height="40.000000pt" viewBox="0 0 40.000000 40.000000"
 preserveAspectRatio="xMidYMid meet">

<g transform="translate(0.000000,40.000000) scale(0.100000,-0.100000)"
fill="#000000" stroke="none">
<path d="M0 335 l0 -65 95 0 95 0 0 65 0 65 -95 0 -95 0 0 -65z m178 -2 l-2
-58 -3 53 -4 52 -74 0 -74 0 -4 -52 -3 -53 -2 58 -2 57 85 0 85 0 -2 -57z
m-18 -3 l0 -41 -62 3 -63 3 -3 38 -3 37 65 0 66 0 0 -40z"/>
<path d="M105 350 c-4 -6 -10 -8 -14 -6 -4 3 -8 -1 -8 -9 0 -7 8 -13 17 -12 8
0 16 9 16 19 0 21 -2 22 -11 8z"/>
<path d="M222 358 c-15 -15 -15 -51 0 -66 15 -15 51 -15 66 0 28 28 7 78 -33
78 -12 0 -26 -5 -33 -12z m63 -33 c0 -26 -3 -30 -29 -30 -16 0 -31 6 -33 13
-3 7 4 12 16 12 12 0 21 4 21 9 0 5 -9 7 -20 4 -11 -3 -20 -1 -20 4 0 17 14
24 40 21 20 -2 25 -8 25 -33z"/>
<path d="M340 250 c0 -68 1 -71 23 -68 20 3 22 8 22 68 0 60 -2 65 -23 68 -21
3 -22 0 -22 -68z m33 34 c-1 -10 -3 -36 -4 -56 -4 -62 -19 -43 -19 23 0 44 3
59 13 56 6 -2 11 -13 10 -23z"/>
<path d="M200 220 l0 -40 55 0 55 0 0 40 0 40 -55 0 -55 0 0 -40z m100 0 c0
-29 -2 -30 -45 -30 -43 0 -45 1 -45 30 0 29 2 30 45 30 43 0 45 -1 45 -30z"/>
<path d="M220 220 c0 -16 7 -20 35 -20 28 0 35 4 35 20 0 16 -7 20 -35 20 -28
0 -35 -4 -35 -20z m60 0 c0 -5 -11 -10 -25 -10 -14 0 -25 5 -25 10 0 6 11 10
25 10 14 0 25 -4 25 -10z"/>
<path d="M362 103 c-2 -57 -5 -73 -17 -73 -8 0 -15 -7 -15 -15 0 -10 11 -15
35 -15 24 0 35 5 35 15 0 8 -7 15 -15 15 -11 0 -15 17 -18 73 l-3 72 -2 -72z
m11 -90 c-7 -2 -19 -2 -25 0 -7 3 -2 5 12 5 14 0 19 -2 13 -5z"/>
<path d="M37 152 c-3 -4 -7 -27 -8 -52 l-4 -45 139 -3 138 -3 -6 23 c-3 13 -6
38 -6 56 l0 32 -124 0 c-69 0 -127 -3 -129 -8z m243 -37 l0 -36 -117 3 -118 3
-3 33 -3 32 120 0 121 0 0 -35z m-52 -52 c-38 -2 -98 -2 -135 0 -38 2 -7 3 67
3 74 0 105 -1 68 -3z"/>
<path d="M7 133 c-15 -14 -6 -86 13 -110 15 -19 20 -21 20 -9 0 14 16 16 125
16 111 0 125 -2 125 -17 0 -15 2 -14 15 3 15 20 21 124 8 124 -5 0 -6 -22 -5
-50 l4 -50 -152 0 -152 0 4 50 c1 28 3 50 2 50 0 0 -4 -3 -7 -7z"/>
</g>
</svg>
