<?xml version="1.0" standalone="no"?>
<!DOCTYPE svg PUBLIC "-//W3C//DTD SVG 20010904//EN"
 "http://www.w3.org/TR/2001/REC-SVG-20010904/DTD/svg10.dtd">
<svg version="1.0" xmlns="http://www.w3.org/2000/svg"
 width="40.000000pt" height="40.000000pt" viewBox="0 0 40.000000 40.000000"
 preserveAspectRatio="xMidYMid meet">

<g transform="translate(0.000000,40.000000) scale(0.100000,-0.100000)"
fill="#000000" stroke="none">
<path d="M125 380 c-11 -12 -37 -22 -66 -26 l-49 -7 0 -174 0 -174 148 3 147
3 3 173 c2 159 1 172 -15 172 -13 0 -15 -3 -5 -8 9 -7 12 -47 10 -168 l-3
-159 -137 -3 -138 -3 0 166 0 165 28 -1 c23 -2 24 -2 5 -6 -22 -4 -23 -7 -21
-121 l2 -117 3 113 4 112 114 0 115 0 0 -140 0 -140 -114 0 c-111 0 -115 1
-119 23 -4 15 -5 12 -4 -8 l2 -30 120 0 120 0 3 153 3 152 -23 0 c-18 0 -20 2
-9 9 12 8 8 11 -15 17 -16 4 -37 15 -47 25 -23 24 -39 24 -62 -1z m53 -7 c2
-8 -6 -13 -22 -13 -25 0 -33 10 -19 24 10 10 36 3 41 -11z m52 -33 c0 -6 -32
-10 -75 -10 -43 0 -75 4 -75 10 0 6 32 10 75 10 43 0 75 -4 75 -10z"/>
<path d="M332 248 c1 -42 3 -51 5 -25 8 70 23 37 23 -48 0 -85 -15 -118 -23
-47 -2 26 -4 19 -5 -23 -1 -33 2 -66 7 -74 16 -26 25 11 30 124 4 91 6 101 12
60 l6 -50 1 53 c1 28 -2 52 -7 52 -5 0 -11 9 -14 20 -3 11 -12 20 -21 20 -13
0 -16 -11 -14 -62z m28 43 c0 -6 -4 -13 -10 -16 -5 -3 -10 1 -10 9 0 9 5 16
10 16 6 0 10 -4 10 -9z"/>
<path d="M60 240 c0 -28 3 -31 28 -28 21 2 27 8 27 28 0 20 -6 26 -27 28 -25
3 -28 0 -28 -28z m40 -1 c0 -24 -23 -21 -28 4 -2 10 3 17 12 17 10 0 16 -9 16
-21z"/>
<path d="M158 243 c18 -2 45 -2 60 0 15 2 0 4 -33 4 -33 0 -45 -2 -27 -4z"/>
<path d="M158 213 c18 -2 45 -2 60 0 15 2 0 4 -33 4 -33 0 -45 -2 -27 -4z"/>
<path d="M60 170 c0 -28 3 -31 28 -28 21 2 27 8 27 28 0 20 -6 26 -27 28 -25
3 -28 0 -28 -28z m40 0 c0 -11 -7 -20 -15 -20 -8 0 -15 9 -15 20 0 11 7 20 15
20 8 0 15 -9 15 -20z"/>
<path d="M158 163 c18 -2 45 -2 60 0 15 2 0 4 -33 4 -33 0 -45 -2 -27 -4z"/>
<path d="M158 143 c17 -2 47 -2 65 0 17 2 3 4 -33 4 -36 0 -50 -2 -32 -4z"/>
<path d="M60 95 c0 -23 4 -26 28 -23 19 2 27 9 27 23 0 14 -8 21 -27 23 -24 3
-28 0 -28 -23z m40 0 c0 -8 -7 -15 -15 -15 -8 0 -15 7 -15 15 0 8 7 15 15 15
8 0 15 -7 15 -15z"/>
<path d="M158 93 c17 -2 47 -2 65 0 17 2 3 4 -33 4 -36 0 -50 -2 -32 -4z"/>
<path d="M163 73 c15 -2 39 -2 55 0 15 2 2 4 -28 4 -30 0 -43 -2 -27 -4z"/>
</g>
</svg>
