<svg aria-hidden="true" style="position: absolute; width: 0; height: 0; overflow: hidden;" version="1.1" xmlns="http://www.w3.org/2000/svg" xmlns:xlink="http://www.w3.org/1999/xlink">
<defs>
<symbol id="icon-burger" viewBox="0 0 32 32">
<path d="M5.333 9h21.333c0.552 0 1-0.448 1-1s-0.448-1-1-1h-21.333c-0.552 0-1 0.448-1 1s0.448 1 1 1z"></path>
<path d="M5.333 17h21.333c0.552 0 1-0.448 1-1s-0.448-1-1-1h-21.333c-0.552 0-1 0.448-1 1s0.448 1 1 1z"></path>
<path d="M5.333 25h21.333c0.552 0 1-0.448 1-1s-0.448-1-1-1h-21.333c-0.552 0-1 0.448-1 1s0.448 1 1 1z"></path>
</symbol>
<symbol id="icon-chevron_right" viewBox="0 0 16 32">
<path d="M15 16l-10 10-3-3 7.5-7-7.5-7 3-3 10 10z"></path>
</symbol>
<symbol id="icon-cross" viewBox="0 0 32 32">
<path d="M20.783 15.999l10.226-10.226c1.321-1.321 1.321-3.462 0-4.783s-3.462-1.321-4.783 0l-10.226 10.227-10.226-10.226c-1.321-1.321-3.462-1.321-4.783 0s-1.321 3.462 0 4.783l10.226 10.226-10.226 10.226c-1.321 1.321-1.321 3.462 0 4.783s3.462 1.321 4.783 0l10.226-10.225 10.226 10.225c1.321 1.321 3.462 1.321 4.783 0s1.321-3.462 0-4.783l-10.226-10.227z"></path>
</symbol>
</defs>
</svg>
